<?xml version="1.0" standalone="no"?>
<!DOCTYPE svg PUBLIC "-//W3C//DTD SVG 20010904//EN"
 "http://www.w3.org/TR/2001/REC-SVG-20010904/DTD/svg10.dtd">
<svg version="1.0" xmlns="http://www.w3.org/2000/svg"
 width="512.000000pt" height="512.000000pt" viewBox="0 0 512.000000 512.000000"
 preserveAspectRatio="xMidYMid meet">
<metadata>
Created by potrace 1.14, written by Peter Selinger 2001-2017
</metadata>
<g transform="translate(0.000000,512.000000) scale(0.100000,-0.100000)"
fill="#000000" stroke="none">
<path d="M2345 4899 c-92 -7 -207 -19 -236 -24 -9 -2 -40 -6 -70 -10 -30 -4
-56 -8 -59 -10 -3 -2 -26 -6 -50 -10 -25 -3 -104 -22 -176 -41 -429 -112 -776
-311 -968 -553 -72 -91 -108 -152 -149 -257 -96 -241 -104 -475 -25 -804 155
-650 454 -1328 839 -1900 262 -390 611 -806 794 -945 215 -164 380 -173 588
-32 89 61 258 231 418 422 19 22 36 42 39 45 30 29 239 304 311 410 24 36 46
67 49 70 3 3 37 55 76 115 316 491 568 1043 719 1581 70 245 97 371 111 509 6
55 5 207 -1 250 -12 86 -15 102 -24 133 -5 18 -9 33 -9 35 1 1 -7 27 -17 57
-28 87 -96 216 -155 295 -8 11 -58 63 -110 115 -140 140 -308 247 -547 346
-87 36 -275 100 -317 108 -11 2 -48 11 -81 19 -64 17 -201 42 -275 51 -25 3
-54 8 -65 10 -87 17 -460 26 -610 15z m-64 -674 c71 -24 139 -92 158 -160 22
-73 18 -714 -3 -790 -30 -102 -121 -174 -268 -215 -141 -38 -232 -31 -287 22
-51 50 -59 96 -55 343 9 596 13 633 77 716 72 95 236 131 378 84z m714 11 c92
-18 164 -80 195 -169 23 -64 34 -253 15 -250 -6 1 -47 5 -90 8 -44 4 -83 11
-86 17 -3 5 -7 41 -7 80 0 39 -6 84 -13 100 -24 59 -115 77 -166 34 l-28 -24
0 -299 1 -298 -32 -22 c-34 -24 -58 -89 -49 -134 19 -96 25 -127 31 -148 7
-24 6 -24 -39 7 -53 37 -81 73 -103 134 -13 36 -16 101 -16 396 -1 391 2 416
59 482 70 82 187 112 328 86z m-1478 -25 c83 -27 143 -99 158 -186 7 -47 7
-188 0 -265 -7 -70 -52 -168 -97 -210 l-35 -33 40 -21 c27 -14 48 -35 61 -61
19 -36 21 -59 22 -246 1 -114 4 -223 8 -242 l7 -35 -98 -51 c-72 -39 -99 -48
-105 -39 -9 15 -10 35 -8 268 0 149 -2 180 -17 210 -23 44 -56 49 -126 21
l-52 -21 -2 -258 c-1 -141 -2 -284 -2 -318 l-1 -61 -61 -48 c-34 -26 -72 -59
-85 -72 -13 -13 -28 -22 -32 -19 -5 3 -9 1699 -3 1702 0 0 88 0 194 -1 131 0
205 -5 234 -14z m2054 -68 c1 -203 10 -507 14 -511 2 -3 9 8 15 24 6 15 24 55
39 88 15 34 63 149 105 256 42 107 81 202 85 210 6 12 30 15 105 16 53 0 96
-2 96 -5 0 -19 -152 -404 -239 -606 -28 -66 -29 -71 -15 -104 8 -20 19 -52 24
-71 5 -19 36 -134 69 -255 34 -121 63 -229 65 -240 2 -11 13 -56 24 -100 11
-44 27 -112 36 -151 9 -39 18 -79 21 -90 2 -10 9 -36 14 -57 l9 -39 -26 24
c-15 12 -29 25 -32 28 -3 3 -35 29 -72 59 -38 29 -68 55 -68 58 0 27 -174 642
-190 672 -6 11 -15 0 -35 -39 -28 -56 -30 -87 -22 -412 1 -32 -2 -58 -6 -58
-4 0 -49 21 -101 47 l-94 47 -2 140 c-1 78 -3 211 -5 296 -2 85 -6 314 -10
508 l-7 352 101 0 101 0 1 -87z m-438 -669 c48 -9 87 -21 88 -28 6 -63 4 -219
-3 -251 -12 -54 -45 -100 -86 -120 -19 -9 -35 -15 -37 -13 -1 2 -15 46 -30 98
-23 75 -30 119 -33 213 -2 64 0 117 5 117 4 0 47 -7 96 -16z m-205 -107 c39
-36 57 -81 130 -337 80 -280 81 -284 87 -348 3 -26 7 -65 10 -87 2 -22 7 -67
10 -100 3 -33 8 -76 10 -95 3 -19 7 -65 10 -102 3 -37 8 -76 10 -86 2 -11 6
-53 10 -94 3 -40 8 -84 10 -98 5 -29 15 -117 20 -175 19 -217 18 -213 65 -425
21 -96 41 -193 44 -215 4 -23 9 -52 11 -65 12 -59 13 -144 3 -164 -9 -17 -110
-149 -128 -166 -3 -3 -32 -36 -65 -75 -178 -209 -317 -341 -417 -398 -26 -15
-49 -27 -51 -27 -3 0 -10 20 -16 44 -17 67 -64 165 -128 267 -33 52 -76 123
-95 159 -67 122 -111 205 -139 257 -47 89 -106 245 -133 352 -14 56 -28 106
-30 110 -3 4 -8 23 -11 42 -3 19 -12 57 -19 84 -8 28 -17 73 -21 100 -3 28 -8
57 -10 65 -2 8 -6 26 -9 40 -6 35 -30 90 -82 192 -85 167 -186 478 -198 606
-6 72 45 125 98 101 37 -17 67 -82 125 -271 19 -61 103 -218 137 -259 8 -8 16
-31 18 -50 7 -55 28 -129 38 -135 5 -3 -13 -19 -39 -36 -70 -44 -95 -69 -83
-83 18 -21 85 2 128 42 20 19 27 16 56 -22 15 -19 23 -35 17 -35 -14 0 -31
-66 -31 -123 0 -75 40 -146 99 -177 23 -12 23 -12 -20 -37 -56 -31 -79 -52
-79 -71 0 -11 8 -13 38 -7 44 8 142 54 142 67 0 9 27 6 163 -18 45 -7 93 -14
107 -14 41 0 54 -32 36 -88 -41 -127 -38 -254 10 -396 25 -75 55 -124 70 -116
10 6 11 2 -10 95 -9 39 -20 93 -24 120 -9 61 -9 301 -1 310 14 14 78 -37 89
-71 13 -40 56 -87 73 -81 19 6 20 45 3 69 -20 28 -20 38 -1 38 8 0 15 6 15 13
0 12 -35 37 -102 72 -21 11 -38 25 -38 32 0 14 -9 17 -125 42 -271 59 -285 63
-330 103 -64 55 -71 159 -16 220 24 27 35 31 83 34 30 1 72 -2 94 -7 310 -74
320 -77 502 -159 100 -46 185 -81 187 -78 9 9 -6 36 -23 41 -9 3 -39 19 -67
35 -27 16 -82 46 -122 67 -47 25 -70 42 -66 51 3 8 9 14 13 14 16 0 64 57 82
98 18 39 23 67 19 101 -2 21 -37 -14 -68 -66 -14 -24 -27 -43 -29 -43 -2 0 -2
15 2 33 16 86 2 193 -41 302 -13 33 -26 87 -30 120 -3 33 -11 94 -16 135 -11
82 -16 134 -23 252 -5 93 -15 163 -26 203 -5 17 -12 46 -15 65 -3 19 -12 62
-21 95 -35 140 -29 216 21 235 30 12 77 2 103 -23z m-78 -1046 c29 -24 35 -38
50 -112 15 -72 18 -198 11 -345 -1 -8 -18 -6 -53 7 -29 10 -86 28 -125 39 -64
18 -73 24 -78 48 -8 42 -48 166 -57 178 -10 14 0 91 18 130 22 46 64 82 109
92 48 10 80 1 125 -37z m-424 -26 c30 -12 41 -27 75 -100 36 -76 81 -187 96
-238 4 -12 1 -16 -8 -13 -16 6 -80 16 -124 21 -27 3 -62 -6 -117 -30 -14 -5
-23 6 -49 62 -17 37 -39 93 -49 122 -16 50 -16 59 -3 98 26 77 102 110 179 78z
m-969 -72 c7 -10 61 -92 121 -183 60 -91 109 -166 108 -167 -1 -1 -28 -5 -60
-8 -86 -10 -85 -10 -96 -21 -7 -7 20 -69 80 -187 50 -97 87 -177 83 -177 -5 1
-25 22 -45 48 -21 26 -55 65 -75 87 -21 23 -51 56 -67 75 -32 39 -122 142
-178 204 -42 48 -44 46 75 66 47 8 81 19 84 27 3 7 0 32 -6 56 -7 23 -14 51
-16 62 -3 11 -13 54 -24 95 -18 70 -16 73 16 23z m2239 39 c-3 -5 -7 -19 -10
-33 -3 -13 -17 -69 -31 -124 -14 -55 -25 -107 -25 -116 0 -12 20 -19 83 -29
123 -19 122 -19 84 -60 -43 -46 -293 -333 -337 -387 -37 -45 -60 -58 -36 -20
7 12 50 93 94 179 94 182 94 181 -17 192 l-69 7 131 200 c72 109 133 199 135
199 2 0 1 -4 -2 -8z"/>
<path d="M2092 4063 c-18 -9 -35 -27 -42 -46 -17 -48 -26 -730 -10 -768 12
-28 17 -31 63 -32 65 -2 122 34 133 84 8 35 16 657 9 704 -3 25 -13 45 -26 53
-31 20 -92 22 -127 5z"/>
<path d="M1345 4012 c-22 -2 -45 -7 -50 -12 -7 -6 -12 -92 -13 -240 l-2 -232
31 7 c87 19 141 62 156 124 6 21 11 92 12 157 2 176 -18 205 -134 196z"/>
<path d="M2877 3054 c-15 -14 -25 -29 -22 -34 9 -14 103 -3 131 15 35 23 15
45 -40 45 -30 0 -48 -7 -69 -26z"/>
<path d="M3020 2673 c-47 -6 -101 -26 -97 -37 7 -21 72 -35 113 -25 41 11 91
45 81 56 -8 7 -61 10 -97 6z"/>
<path d="M1932 2384 c-25 -17 -29 -49 -7 -58 31 -11 85 24 85 56 0 23 -46 25
-78 2z"/>
<path d="M3024 2285 c-19 -15 -19 -15 4 -34 12 -11 30 -18 40 -16 9 2 22 4 29
4 6 1 19 9 28 18 16 16 16 17 -1 30 -24 17 -76 17 -100 -2z"/>
<path d="M2063 2160 c-37 -16 -73 -52 -73 -72 0 -28 142 27 154 59 4 9 5 18 3
20 -12 12 -49 9 -84 -7z"/>
<path d="M2473 1873 c-25 -9 -13 -32 22 -43 19 -6 35 -14 35 -18 0 -15 -34
-128 -41 -136 -12 -14 -57 2 -83 31 -30 33 -42 25 -30 -19 12 -42 65 -78 114
-78 45 0 53 9 75 80 24 82 30 144 13 157 -17 14 -88 31 -105 26z"/>
<path d="M2941 1716 c-17 -21 -27 -111 -13 -120 16 -10 51 27 57 60 3 22 -1
39 -13 54 -16 20 -19 21 -31 6z"/>
</g>
</svg>
